<svg xmlns="http://www.w3.org/2000/svg" viewBox="0 0 260.56 38.63"><defs><style>.cls-1{fill:#162443;}.cls-2,.cls-3{fill:#a12023;}.cls-3{fill-rule:evenodd;}</style></defs><g id="Layer_2" data-name="Layer 2"><g id="Layer_1-2" data-name="Layer 1"><path class="cls-1" d="M53.72,18.15h-2l-3.14-4-.83,1v3H46.08V8.78h1.64v4.45l3.67-4.45h2l-3.81,4.41ZM56.28,18a.94.94,0,0,1-1.38,0,1,1,0,0,1-.3-.7.92.92,0,0,1,.3-.68,1,1,0,0,1,1.38,0,.92.92,0,0,1,.3.68,1,1,0,0,1-.3.7Zm7.39.31a3.35,3.35,0,0,1-2.5-1L62,16.07a2,2,0,0,0,1.6.78,1.61,1.61,0,0,0,1.19-.46,1.71,1.71,0,0,0,.45-1.23V8.78h1.65v6.39A3.06,3.06,0,0,1,66,17.52a3.29,3.29,0,0,1-2.3.8ZM69.88,18a.93.93,0,0,1-1.37,0,.9.9,0,0,1-.3-.7.85.85,0,0,1,.3-.68,1,1,0,0,1,1.37,0,.92.92,0,0,1,.3.68.94.94,0,0,1-.3.7Zm9,.31a5.11,5.11,0,0,1-3.83-1.49L76,15.55a3.86,3.86,0,0,0,3,1.31,2.17,2.17,0,0,0,1.4-.38,1.18,1.18,0,0,0,.47-.91.91.91,0,0,0-.4-.76,2.9,2.9,0,0,0-1-.44c-.4-.09-.84-.21-1.31-.35s-.88-.29-1.31-.46a2.4,2.4,0,0,1-1-.82,2.35,2.35,0,0,1-.4-1.36,2.48,2.48,0,0,1,1-2,3.78,3.78,0,0,1,2.47-.78A4.79,4.79,0,0,1,82.28,10l-.93,1.22a3.7,3.7,0,0,0-2.72-1.08,1.88,1.88,0,0,0-1.15.32,1,1,0,0,0-.43.84.74.74,0,0,0,.3.6,2.31,2.31,0,0,0,.78.4c.32.09.67.19,1.06.28a9.24,9.24,0,0,1,1.17.34,6,6,0,0,1,1.06.5,2.19,2.19,0,0,1,.78.82,2.39,2.39,0,0,1,.3,1.23,2.69,2.69,0,0,1-.92,2.08,3.93,3.93,0,0,1-2.7.82Zm10.75-1a3.63,3.63,0,0,1-5.06,0,3.61,3.61,0,0,1-1-2.54,3.57,3.57,0,0,1,1-2.54,3.67,3.67,0,0,1,5.06,0,3.56,3.56,0,0,1,1,2.54A3.65,3.65,0,0,1,89.63,17.3ZM87.1,17a1.72,1.72,0,0,0,1.43-.65,2.47,2.47,0,0,0,.52-1.61,2.5,2.5,0,0,0-.52-1.6,1.9,1.9,0,0,0-2.86,0,2.51,2.51,0,0,0-.53,1.6,2.53,2.53,0,0,0,.53,1.61A1.76,1.76,0,0,0,87.1,17ZM102,18.15h-1.47V13.72c0-.81-.38-1.22-1.13-1.22a1.69,1.69,0,0,0-.9.27,2,2,0,0,0-.67.63v4.75H96.3V13.72c0-.81-.37-1.22-1.11-1.22a1.66,1.66,0,0,0-.89.27,2.15,2.15,0,0,0-.68.63v4.75H92.14V11.36h1.48v.92a2.55,2.55,0,0,1,.9-.73,2.44,2.44,0,0,1,1.32-.35,2,2,0,0,1,1.21.33,1.59,1.59,0,0,1,.64.9,2.61,2.61,0,0,1,1-.86A2.51,2.51,0,0,1,100,11.2a1.9,1.9,0,0,1,1.44.51,2.12,2.12,0,0,1,.51,1.54Zm7.6,0h-1.47v-.74a2.79,2.79,0,0,1-2.21.91,2.49,2.49,0,0,1-1.63-.6,2.08,2.08,0,0,1-.72-1.65,2,2,0,0,1,.7-1.65,2.55,2.55,0,0,1,1.65-.57,2.76,2.76,0,0,1,2.2.88v-1a1.08,1.08,0,0,0-.44-.92,1.79,1.79,0,0,0-1.14-.34,2.72,2.72,0,0,0-2,.87l-.62-1a4,4,0,0,1,2.85-1.1,3.39,3.39,0,0,1,2.05.59,2.15,2.15,0,0,1,.79,1.86Zm-3.09-.84a1.94,1.94,0,0,0,1.62-.7v-1a1.89,1.89,0,0,0-1.62-.7,1.59,1.59,0,0,0-1,.33,1.16,1.16,0,0,0,0,1.77,1.65,1.65,0,0,0,1,.34Zm6.45-7a.93.93,0,0,1-1.29,0,.92.92,0,0,1,0-1.3.93.93,0,0,1,1.29,0,.93.93,0,0,1,.27.65.89.89,0,0,1-.27.65Zm.08,7.88h-1.47V11.36H113Zm1.69,2.66.21-1.33a1.38,1.38,0,0,0,.56.12,1,1,0,0,0,1-.59l.33-.78L114,11.36h1.6l2,5.09,2-5.09h1.57l-3.27,8a2.35,2.35,0,0,1-.91,1.17,2.67,2.67,0,0,1-1.41.36,2.9,2.9,0,0,1-.83-.09Zm13-2.66h-1.47V17.4a2.77,2.77,0,0,1-2.21.92,2.49,2.49,0,0,1-1.63-.6,2.08,2.08,0,0,1-.72-1.65,2,2,0,0,1,.7-1.65,2.55,2.55,0,0,1,1.65-.57,2.78,2.78,0,0,1,2.2.87v-1a1.11,1.11,0,0,0-.44-.92,1.8,1.8,0,0,0-1.14-.34,2.72,2.72,0,0,0-2,.87l-.62-1a4,4,0,0,1,2.85-1.1,3.39,3.39,0,0,1,2.05.59,2.15,2.15,0,0,1,.79,1.86Zm-3.09-.84a1.91,1.91,0,0,0,1.61-.7v-1a1.86,1.86,0,0,0-1.61-.7,1.59,1.59,0,0,0-1,.33,1.16,1.16,0,0,0,0,1.77,1.65,1.65,0,0,0,1,.34Z"/><path class="cls-2" d="M38.73,23.53l-3.16-.67.1-.48.48.1a1.3,1.3,0,0,1-.37-.44.63.63,0,0,1,0-.36,1.12,1.12,0,0,1,.29-.52l.46.29a.75.75,0,0,0-.2.37.55.55,0,0,0,.29.6,1.94,1.94,0,0,0,.61.22l1.66.36Zm-1.93.81a3.92,3.92,0,0,1-.13.91,2.07,2.07,0,0,0-.07.49.47.47,0,0,0,.49.46.46.46,0,0,0,.21-.05.72.72,0,0,0,.31-.4,1.14,1.14,0,0,0,.08-.58.84.84,0,0,0-.23-.47,1.22,1.22,0,0,0-.48-.28Zm1.16.4a2.28,2.28,0,0,1,.13.68A2,2,0,0,1,38,26a1.13,1.13,0,0,1-.54.67.83.83,0,0,1-.72,0,.94.94,0,0,1-.37-.25.91.91,0,0,1-.19-.38,1.56,1.56,0,0,1,0-.43c0-.17.06-.33.1-.49a5.45,5.45,0,0,0,.18-1l-.14-.05a.62.62,0,0,0-.5,0,1,1,0,0,0-.4.52,1,1,0,0,0-.07.58.78.78,0,0,0,.35.43l-.26.47a1.26,1.26,0,0,1-.44-.42,1.11,1.11,0,0,1-.13-.57,2.08,2.08,0,0,1,.16-.73,2,2,0,0,1,.33-.59.91.91,0,0,1,.37-.27.81.81,0,0,1,.41,0,4.42,4.42,0,0,1,.48.15l.68.26a7.71,7.71,0,0,0,.92.32,1.4,1.4,0,0,0,.41,0l-.21.53a1.09,1.09,0,0,1-.4,0Zm-2,5.14-3.9-2.17.26-.48,1.4.78a1.31,1.31,0,0,1,.51-1.54.84.84,0,0,1,.53-.15,1.93,1.93,0,0,1,.69.26l1.79,1-.27.48-1.79-1a.88.88,0,0,0-.61-.14.68.68,0,0,0-.41.35.92.92,0,0,0-.11.46.75.75,0,0,0,.15.44,1.72,1.72,0,0,0,.48.37l1.55.86ZM35.07,31l-2.55-2,.34-.43,2.55,2Zm-3-2.36-.5-.39.34-.43.5.39Zm1.54,4-3.21-1.31.4-.42,1.89.81c.21.09.41.18.62.29-.09-.15-.2-.34-.31-.57l-1-1.87.39-.41,1.53,3.1Zm-2.71.26a3.92,3.92,0,0,1-.57.72A2.25,2.25,0,0,0,30,34a.48.48,0,0,0,.2.65.46.46,0,0,0,.21,0,.7.7,0,0,0,.47-.19,1.23,1.23,0,0,0,.35-.46.85.85,0,0,0,0-.52,1.47,1.47,0,0,0-.27-.49Zm.8.92a2.08,2.08,0,0,1-.22.65,1.81,1.81,0,0,1-.4.47,1.2,1.2,0,0,1-.8.31.81.81,0,0,1-.64-.34.75.75,0,0,1-.19-.4.85.85,0,0,1,0-.42,1.34,1.34,0,0,1,.19-.4,3.8,3.8,0,0,1,.33-.37,5.15,5.15,0,0,0,.64-.76l-.09-.11a.57.57,0,0,0-.42-.27.87.87,0,0,0-.6.25,1,1,0,0,0-.36.46.83.83,0,0,0,.09.54l-.46.28a1.26,1.26,0,0,1-.16-.58,1,1,0,0,1,.17-.56,2.17,2.17,0,0,1,.5-.55,1.91,1.91,0,0,1,.58-.35,1,1,0,0,1,.45-.05.93.93,0,0,1,.37.19,2.37,2.37,0,0,1,.34.37l.46.57a7.43,7.43,0,0,0,.64.73,1.38,1.38,0,0,0,.35.22l-.45.36a1.31,1.31,0,0,1-.34-.24ZM28.09,38l-.3-.43a1,1,0,0,0,.3-.1.53.53,0,0,0,.23-.19.49.49,0,0,0,.08-.23,3.13,3.13,0,0,0,0-.44.46.46,0,0,1,0-.14l-2.6-2.29.52-.28,1.47,1.34a7.23,7.23,0,0,1,.56.55q-.09-.37-.15-.75l-.27-2,.48-.26.46,3.48a5.29,5.29,0,0,1,.07.8,1.09,1.09,0,0,1-.1.5.83.83,0,0,1-.34.33,1.4,1.4,0,0,1-.35.1ZM24,36.45a1.38,1.38,0,0,0,.55.79.78.78,0,0,0,1.17-.39,1.36,1.36,0,0,0-.06-.93,1.5,1.5,0,0,0-.56-.84.79.79,0,0,0-.7-.09.8.8,0,0,0-.48.49,1.44,1.44,0,0,0,.08,1Zm2.16,1L26.06,37a1,1,0,0,1-.7.75,1.25,1.25,0,0,1-.74,0,1.36,1.36,0,0,1-.67-.4,2.08,2.08,0,0,1-.46-.77,2.4,2.4,0,0,1-.13-.89,1.27,1.27,0,0,1,.26-.72,1.25,1.25,0,0,1,.62-.44,1.09,1.09,0,0,1,1,.13L24.7,33.2l.52-.18,1.45,4.22Zm-3.35.92-.62-3.18.54-.1.62,3.18Zm-.73-3.77L22,33.94l.54-.1.12.62ZM20.2,38.63l-2.12-4.3.64-.06,1.44,3.13c.12.25.21.49.3.71q.08-.37.18-.75L21.56,34l.6-.05-1.36,4.6Zm-4.87-2a4,4,0,0,1-.92,0,2,2,0,0,0-.49,0,.48.48,0,0,0-.42.53.54.54,0,0,0,.08.21.66.66,0,0,0,.42.27,1,1,0,0,0,.58,0,.82.82,0,0,0,.46-.26,1.34,1.34,0,0,0,.23-.5ZM15,37.78a2,2,0,0,1-.67.19,1.57,1.57,0,0,1-.61-.06,1.15,1.15,0,0,1-.72-.48.9.9,0,0,1-.09-.72.83.83,0,0,1,.23-.38.89.89,0,0,1,.35-.23A1.28,1.28,0,0,1,14,36a2.83,2.83,0,0,1,.5.05,5.44,5.44,0,0,0,1,.09,1.19,1.19,0,0,0,0-.14.58.58,0,0,0,0-.5.93.93,0,0,0-.55-.35,1,1,0,0,0-.59,0,.87.87,0,0,0-.39.39l-.49-.22a1.43,1.43,0,0,1,.38-.47,1.09,1.09,0,0,1,.56-.18,2,2,0,0,1,.73.1,1.83,1.83,0,0,1,.62.28.83.83,0,0,1,.3.34.8.8,0,0,1,.06.4,2.78,2.78,0,0,1-.11.5l-.2.7a5.86,5.86,0,0,0-.23.94,1.14,1.14,0,0,0,0,.41L15,38.2a1.19,1.19,0,0,1,0-.42Zm-5.59-.33L9.62,37a1.51,1.51,0,0,0,.26.18.73.73,0,0,0,.29.07.62.62,0,0,0,.24-.08,3,3,0,0,0,.32-.3l.1-.1.26-3.46.53.25-.18,2c0,.26-.06.51-.1.78a6.91,6.91,0,0,1,.51-.57l1.43-1.42.5.23L11.27,37a5,5,0,0,1-.59.53,1.07,1.07,0,0,1-.47.22.8.8,0,0,1-.46-.07,1.29,1.29,0,0,1-.3-.22Zm-.66-1.83,1.62-2.8.47.28L9.27,35.9Zm1.92-3.32.31-.55.48.28-.32.55ZM8.66,33.59a3.73,3.73,0,0,1-.83-.4A2,2,0,0,0,7.39,33a.48.48,0,0,0-.6.32.55.55,0,0,0,0,.22.73.73,0,0,0,.29.42,1.15,1.15,0,0,0,.52.25.84.84,0,0,0,.52-.07,1.25,1.25,0,0,0,.42-.37Zm-.74,1a2.33,2.33,0,0,1-.69-.08,1.86,1.86,0,0,1-.53-.3,1.19,1.19,0,0,1-.48-.72.89.89,0,0,1,.2-.7,1,1,0,0,1,.36-.27.87.87,0,0,1,.42-.07,1.53,1.53,0,0,1,.42.11,3.62,3.62,0,0,1,.43.24,4.39,4.39,0,0,0,.88.47l.09-.1a.65.65,0,0,0,.18-.47.93.93,0,0,0-.37-.54,1,1,0,0,0-.53-.25.74.74,0,0,0-.51.2l-.37-.4A1.29,1.29,0,0,1,8,31.41a1,1,0,0,1,.58.05,2.22,2.22,0,0,1,.65.38,1.84,1.84,0,0,1,.46.5.91.91,0,0,1,.14.43.82.82,0,0,1-.1.4,3.91,3.91,0,0,1-.3.41l-.46.57a7.38,7.38,0,0,0-.58.77,1.3,1.3,0,0,0-.14.39L7.76,35a1,1,0,0,1,.16-.38Zm-5.4-4.89L5,27.6l.31.38L5,28.27a1.13,1.13,0,0,1,1,.41,1,1,0,0,1,.26.55.71.71,0,0,1-.11.51,1.18,1.18,0,0,1,1.08.4,1,1,0,0,1,.27.74,1.12,1.12,0,0,1-.46.73L5.34,33,5,32.62,6.55,31.3A1.52,1.52,0,0,0,6.88,31a.46.46,0,0,0,0-.3.5.5,0,0,0-.14-.31.77.77,0,0,0-.54-.29,1,1,0,0,0-.7.29L4.11,31.56l-.35-.42,1.61-1.35a.91.91,0,0,0,.33-.46.51.51,0,0,0-.14-.45.79.79,0,0,0-.37-.25.69.69,0,0,0-.45,0,2.05,2.05,0,0,0-.58.37L2.87,30.1Zm0-3.48a1.4,1.4,0,0,0-.7.66A.89.89,0,0,0,2.36,28l.13,0a1.38,1.38,0,0,0,1-.19,1.31,1.31,0,0,0,.68-.65.89.89,0,0,0-.49-1.17l-.12,0a1.36,1.36,0,0,0-.95.17Zm-.25-.5a1.67,1.67,0,0,1,1.41-.16,1.48,1.48,0,0,1,.78.74,1.45,1.45,0,0,1,.11,1.17,1.67,1.67,0,0,1-.88.93,2.36,2.36,0,0,1-1,.28A1.41,1.41,0,0,1,2,28.42a1.61,1.61,0,0,1-.53-.6,1.47,1.47,0,0,1-.11-1.18,1.73,1.73,0,0,1,.93-.95ZM1.08,22.08l.19.53a1.34,1.34,0,0,0-.49.32,1.09,1.09,0,0,0-.22.53,1.85,1.85,0,0,0,0,.7,2,2,0,0,0,.25.55.91.91,0,0,0,.37.3.61.61,0,0,0,.4,0A.58.58,0,0,0,2,24.82a.87.87,0,0,0,.15-.46,7.63,7.63,0,0,0,0-.83,3.89,3.89,0,0,1,.05-.9,1.21,1.21,0,0,1,.27-.57,1,1,0,0,1,.5-.29,1.06,1.06,0,0,1,.66,0,1.23,1.23,0,0,1,.58.42,2.17,2.17,0,0,1,.36.75,2.24,2.24,0,0,1,.07.89,1.24,1.24,0,0,1-.3.69,1.31,1.31,0,0,1-.62.39l-.19-.53A1,1,0,0,0,4,23.93a1.25,1.25,0,0,0,0-.81,1.25,1.25,0,0,0-.4-.7.57.57,0,0,0-.52-.11.51.51,0,0,0-.34.27,2.48,2.48,0,0,0-.07.94,7.09,7.09,0,0,1,0,1,1.53,1.53,0,0,1-.29.68,1.15,1.15,0,0,1-.57.34,1.28,1.28,0,0,1-.7,0A1.36,1.36,0,0,1,.5,25.1a2,2,0,0,1-.39-.78,2.58,2.58,0,0,1-.09-1,1.36,1.36,0,0,1,.34-.76A1.55,1.55,0,0,1,1.08,22.08Z"/><path class="cls-2" d="M29.1,17.16l.57-.66c.22-.26.29-.48.23-.64a.87.87,0,0,0-.16-.3.77.77,0,0,0-.29-.22l-.36.39.28.23a.46.46,0,0,1,.14.17.29.29,0,0,1-.07.19l-.57.79Zm3.12-2.82.15.36-2.21.9-.15.68,2.58-1,.17.42.5-.2-.54-1.32Zm-.78-1.56.25.45-.69.39-.12-.23a.09.09,0,0,0-.08,0l-.13,0a.41.41,0,0,0-.2.23l-.19.61a.28.28,0,0,0,0,.13.44.44,0,0,0,0,.1.15.15,0,0,0,.11.08.15.15,0,0,0,.13,0l.23-.13.37.67.52-.28-.37-.68.69-.38.25.45.46-.25-.78-1.41Zm-.69-1,.21.33-2,1.27,0,.7,2.36-1.48.24.39.45-.28-.75-1.2Zm-.28-.41.25.31.42-.34-.9-1.11-.42.34.37.45a.17.17,0,0,1,0,.14.26.26,0,0,1-.1.13.4.4,0,0,1-.23.1.24.24,0,0,1-.22-.09l-.16-.2a.33.33,0,0,0-.16.07,1.18,1.18,0,0,0-.38.62.76.76,0,0,0,.1.74,1,1,0,0,0,.56.38l.56-.45a1.08,1.08,0,0,1-.44-.09.85.85,0,0,1-.35-.27.33.33,0,0,1-.07-.17.16.16,0,0,1,.05-.15.55.55,0,0,0,.43.1.84.84,0,0,0,.45-.2A.73.73,0,0,0,30.47,11.32ZM28.6,10.06a.5.5,0,0,0-.44-.13.87.87,0,0,0-.52.32,1.31,1.31,0,0,0-.25.68,4.18,4.18,0,0,0,0,1l.24.1a2.64,2.64,0,0,1,.29-1.43.48.48,0,0,1,.26-.16.34.34,0,0,1,.24.09c.1.09.12.17.06.23l-.36.38.19.46.42-.45a.23.23,0,0,1,.17-.08.23.23,0,0,1,.18.08.36.36,0,0,1,.11.16A.56.56,0,0,0,29.3,11a.32.32,0,0,0-.08-.28l0,0a.3.3,0,0,0-.2-.08.34.34,0,0,0-.22.05.88.88,0,0,0,0-.28A.52.52,0,0,0,28.6,10.06Zm.16-1.3-.36.39,1.27,1.19L30,10ZM27.27,8.3l.31.24-1.47,1.88.21.66L28,8.9l.36.27.33-.42L27.6,7.88Zm-.76-1.11-.28.45,1,.65.28-.45Zm.41,2.12a1,1,0,0,1-.76-.07c-.11-.07-.14-.14-.1-.23a.37.37,0,0,1,.4-.15,1.29,1.29,0,0,1,.54.19l0-.52a1,1,0,0,0-.67-.19.66.66,0,0,0-.48.33.69.69,0,0,0-.08.61.75.75,0,0,0,.35.5.72.72,0,0,0,.2.09.5.5,0,0,0,.21,0ZM24.48,7.63l-.33.65a.83.83,0,0,1,.35,0,1.11,1.11,0,0,1,.3.08.37.37,0,0,1,.08.18.32.32,0,0,1,0,.16.54.54,0,0,1-.22.23,1.13,1.13,0,0,1-.33.13.46.46,0,0,0-.06.23.33.33,0,0,0,.2.23.35.35,0,0,0,.38-.07A1.2,1.2,0,0,0,25.15,9a1,1,0,0,0,.09-.69.78.78,0,0,0-.42-.6.45.45,0,0,0-.34,0Zm.58-.51,1.09.56.25-.48-1.1-.56Zm-.83-1.74L24,5.12a1.5,1.5,0,0,0-.33-.29l-.57-.25.06.67.35.15a3.58,3.58,0,0,1,.55.38,1.39,1.39,0,0,1,.42.45l.4.18c-.06-.39-.12-.71-.17-1a8.08,8.08,0,0,0-.24-1c-.1-.3-.19-.47-.28-.51l-.57-.26.06.68.18.08a1.36,1.36,0,0,1,.23.52,3.71,3.71,0,0,0,.15.4Zm-.54,1.16.37.14-.82,2.23.41.57,1-2.6L25,7l.19-.5L23.87,6Zm0,0,.15-.51-1.19-.34-.15.51Zm0,1a1,1,0,0,1-.71.13.25.25,0,0,1-.19-.29,0,0,0,0,0,0,0c0-.14.3-.2.79-.19l-.06-.49a1.52,1.52,0,0,0-.7.11.7.7,0,0,0-.41.46.92.92,0,0,0,.13.58.74.74,0,0,0,.45.36l.24,0a.84.84,0,0,0,.27,0Zm-3.1,1.7a.73.73,0,0,0-.16-.53.7.7,0,0,0-.49-.24,1.13,1.13,0,0,0-.41.05.89.89,0,0,0-.32.29l.29.42A1.11,1.11,0,0,1,19.74,9,.39.39,0,0,1,20,9a.25.25,0,0,1,.18.08.3.3,0,0,1,.06.18.36.36,0,0,1-.12.26.63.63,0,0,1-.44.1,1.06,1.06,0,0,1-.65-.4,2.9,2.9,0,0,1-.44-.6l-.34,0c.29.43.44.66.45.66a2.65,2.65,0,0,0,.48.52,1.1,1.1,0,0,0,.6.24.75.75,0,0,0,.58-.16.71.71,0,0,0,.24-.51ZM19.2,5.92h.39V8.3l.58.4V5.92h.45V5.39H19.2Zm.06-.09,0-.53-1.42.1,0,.53Zm-.8.59a.42.42,0,0,0-.31.18.75.75,0,0,0-.1.44,1.62,1.62,0,0,0,.27.74,5.67,5.67,0,0,0,.68.79l.24-.16a2.8,2.8,0,0,1-.52-.57,1.2,1.2,0,0,1-.24-.54.27.27,0,0,1,.06-.21.29.29,0,0,1,.22-.1l.83-.06,0-.6Zm-3.66.2.37-.11.66,2.29.66.22-.76-2.67.43-.13L16,5.71l-1.37.39Zm-1.33,0,.2.5,1.14-.46-.2-.5Zm2,.91a1,1,0,0,1-.5.58c-.12.05-.2,0-.25-.06a.38.38,0,0,1,.11-.41,1.58,1.58,0,0,1,.48-.33L14.87,7a1.07,1.07,0,0,0-.55.43.63.63,0,0,0,0,.58.74.74,0,0,0,.45.43.81.81,0,0,0,.61,0,.72.72,0,0,0,.19-.11.55.55,0,0,0,.13-.17Zm-2.34-.76A6.19,6.19,0,0,0,12,6.21a1.27,1.27,0,0,0-.79-.11l-.57.25.54.4.35-.16a.72.72,0,0,1,.48,0,2.9,2.9,0,0,1,.72.31ZM12.33,8.3a.54.54,0,0,0-.19.37,1,1,0,0,0,.15.48,1.12,1.12,0,0,0,.61.52.91.91,0,0,0,.82,0l.13-.09.25.11a.49.49,0,0,1,.2.18l.39-.22-.18-.14a.74.74,0,0,0-.37-.17.76.76,0,0,0,0-.27.49.49,0,0,0-.06-.17.74.74,0,0,0-.21-.28.33.33,0,0,0-.39,0,.43.43,0,0,0-.18.22.3.3,0,0,0,.15.4h0a.22.22,0,0,1-.1.09.53.53,0,0,1-.39,0,.51.51,0,0,1-.29-.21.52.52,0,0,1-.05-.27.27.27,0,0,1,.14-.23l.73-.4-.48-.87.45-.25-.26-.47-2,1.13.26.46,1.13-.62.23.41Zm-2.09,1L10.55,9,12,10.9l.7-.05L11,8.67l.36-.28L11,8l-1.12.87Zm-1,1,.28-.27,1.66,1.71.69-.11-1.93-2,.33-.32-.37-.38-1,1Zm-.3,1.21a.26.26,0,0,0,0,.19.28.28,0,0,0,.1.21.2.2,0,0,0,.15,0l.79,0a.31.31,0,0,0,.21-.07s0-.06,0-.08l-.44-.4.65-.71-.4-.36ZM7.83,11l.4.36,1-1.1-.4-.36ZM7.4,12.53l.23-.32,1.93,1.4.66-.23L8,11.75l.27-.37-.43-.31L7,12.22Zm-.67,1.14.2-.33,2,1.23.64-.3L7.23,12.84l.23-.38L7,12.19,6.27,13.4Zm-1.3,1.8.5.19.67-1.74-.5-.19ZM8,15.36a.55.55,0,0,0-.37.34.41.41,0,0,0,0,.29.33.33,0,0,0,.2.2.3.3,0,0,0,.29,0,.69.69,0,0,0,.21-.3l.05-.13.57-.2,0-.34-.51.11a.71.71,0,0,0-.1-.42A.55.55,0,0,0,8,14.61a.64.64,0,0,0-.59.16,1.72,1.72,0,0,0-.45.48l.46-1.2L7,13.86l-.51,1.32a.48.48,0,0,0,0,.29.29.29,0,0,0,.17.19c.21.08.46,0,.76-.3S7.87,15,8,15a.16.16,0,0,1,.1.14.58.58,0,0,1,0,.23Z"/><path class="cls-2" d="M36.18,13.71l.23.43a.31.31,0,0,0-.16.18.41.41,0,0,0,0,.27.45.45,0,0,0,.16.24.14.14,0,0,0,.14,0,.11.11,0,0,0,.07-.06.33.33,0,0,0,0-.17,2.83,2.83,0,0,1,0-.77.49.49,0,0,1,.31-.33.5.5,0,0,1,.43.05.85.85,0,0,1,.34.49.94.94,0,0,1,.06.55.6.6,0,0,1-.25.35l-.22-.4a.33.33,0,0,0,.11-.15.4.4,0,0,0,0-.24.49.49,0,0,0-.14-.24.14.14,0,0,0-.11,0,.12.12,0,0,0-.06.08,1.42,1.42,0,0,0,0,.46,1.37,1.37,0,0,1,0,.57.43.43,0,0,1-.29.25.5.5,0,0,1-.46,0,1,1,0,0,1-.37-.52,1,1,0,0,1,0-.6.74.74,0,0,1,.29-.4m.25-.92a.49.49,0,0,0,.24-.23.29.29,0,0,0,0-.27.31.31,0,0,0-.21-.19.51.51,0,0,0-.32,0ZM36,13l.12.47a.75.75,0,0,1-.48-.1.85.85,0,0,1-.33-.39.83.83,0,0,1,0-.75,1.07,1.07,0,0,1,.49-.42,1,1,0,0,1,.73-.08.74.74,0,0,1,.47.43.81.81,0,0,1,0,.68,1.17,1.17,0,0,1-.64.54l-.5-1.08a.51.51,0,0,0-.25.25.35.35,0,0,0,0,.3.29.29,0,0,0,.13.14A.37.37,0,0,0,36,13Zm.46-1.9-.33.19L36,11l-.62.36-.22.14a.09.09,0,0,0,0,.07.12.12,0,0,0,0,.08.57.57,0,0,0,.13.14l-.3.22a1.16,1.16,0,0,1-.25-.29.83.83,0,0,1-.08-.22.32.32,0,0,1,0-.19.44.44,0,0,1,.12-.15l.28-.18.68-.39-.11-.19.33-.19.11.19.31-.18.47.28-.54.32ZM34.7,10l-.22-.2a.91.91,0,0,0-.21-.18.19.19,0,0,0-.19,0,.23.23,0,0,0-.1.15.28.28,0,0,0,0,.2.39.39,0,0,0,.2.16.28.28,0,0,0,.2,0,.78.78,0,0,0,.2-.11Zm0-.75-.17-.4a.72.72,0,0,1,.46,0,1,1,0,0,1,.39.38,1.16,1.16,0,0,1,.19.44.4.4,0,0,1,0,.28.89.89,0,0,1-.32.29l-.47.3a1.86,1.86,0,0,0-.28.21.75.75,0,0,0-.15.2l-.26-.4.1-.11a.09.09,0,0,0,0,0,.81.81,0,0,1-.29-.12.84.84,0,0,1-.21-.21.65.65,0,0,1-.11-.45.51.51,0,0,1,.23-.34.44.44,0,0,1,.27-.09.48.48,0,0,1,.26.07,1.87,1.87,0,0,1,.3.26,2.6,2.6,0,0,0,.35.32l0,0a.27.27,0,0,0,.13-.17A.36.36,0,0,0,35,9.39a.4.4,0,0,0-.15-.14.3.3,0,0,0-.21,0Zm-1.79-.32-.3-.37L34,7.43l.28.34-.2.16a.65.65,0,0,1,.31,0,.36.36,0,0,1,.18.12.56.56,0,0,1,.12.3l-.41.15a.49.49,0,0,0-.08-.23.31.31,0,0,0-.15-.1.34.34,0,0,0-.22.05,2.38,2.38,0,0,0-.49.34Zm-.11-1.71a.43.43,0,0,0,.15-.29.34.34,0,0,0-.32-.36h0a.44.44,0,0,0-.29.14Zm-.36.31.27.4A.75.75,0,0,1,32.2,8a.87.87,0,0,1-.44-.26A.82.82,0,0,1,31.5,7a1.13,1.13,0,0,1,.32-.56,1,1,0,0,1,.67-.31.75.75,0,0,1,.59.25.83.83,0,0,1,.25.63,1.17,1.17,0,0,1-.43.73l-.83-.86a.46.46,0,0,0-.15.31.36.36,0,0,0,.1.28.31.31,0,0,0,.18.09.39.39,0,0,0,.21-.06ZM30.58,5.38a.73.73,0,0,0-.19.37.38.38,0,0,0,.14.35.33.33,0,0,0,.3.06.63.63,0,0,0,.34-.26.74.74,0,0,0,.19-.42.34.34,0,0,0-.14-.28.35.35,0,0,0-.31-.07A.56.56,0,0,0,30.58,5.38Zm-.95.44,1.52-1.95.38.29-.55.7a.71.71,0,0,1,.84.65,1,1,0,0,1-.25.67A1,1,0,0,1,31,6.6a.69.69,0,0,1-.57-.13.67.67,0,0,1-.19-.25.63.63,0,0,1-.06-.33l-.16.2Zm-.76-.53.95-1.51.4.25-.95,1.52ZM30,3.57l.23-.37.4.25-.23.37Zm-2.89.65,1.19-2.14.44.24-1,1.78,1.08.6-.2.36ZM25.69,2.53a.47.47,0,0,0,0-.33A.34.34,0,0,0,25.24,2h0a.46.46,0,0,0-.19.26ZM25.52,3l.42.22a.77.77,0,0,1-.4.29.89.89,0,0,1-.51,0,.81.81,0,0,1-.56-.5,1,1,0,0,1,0-.65,1,1,0,0,1,.44-.59.79.79,0,0,1,.64-.06.83.83,0,0,1,.52.45,1.22,1.22,0,0,1,0,.84l-1.13-.37a.45.45,0,0,0,0,.34.34.34,0,0,0,.22.2.23.23,0,0,0,.2,0A.35.35,0,0,0,25.52,3Zm-1.65.08L23.41,3l.21-.89a1.65,1.65,0,0,0,.05-.38.3.3,0,0,0-.07-.15.28.28,0,0,0-.15-.08.37.37,0,0,0-.23,0,.35.35,0,0,0-.17.15,1.79,1.79,0,0,0-.13.39l-.18.79-.46-.1L22.68,1l.43.1-.06.26A.74.74,0,0,1,24,1.26a.49.49,0,0,1,.16.19.54.54,0,0,1,.05.21,1.64,1.64,0,0,1-.05.32ZM20.65,1.62a.59.59,0,0,0,.1.41.42.42,0,0,0,.58.09l0,0a.59.59,0,0,0,.16-.4.59.59,0,0,0-.1-.41.4.4,0,0,0-.3-.17.41.41,0,0,0-.32.12.59.59,0,0,0-.16.4Zm-.48-.06a.93.93,0,0,1,.15-.45A.71.71,0,0,1,20.67.8a1,1,0,0,1,.48-.09A.94.94,0,0,1,21.8,1a.91.91,0,0,1,.21.69.91.91,0,0,1-.31.65.83.83,0,0,1-.67.22,1,1,0,0,1-.46-.14.73.73,0,0,1-.32-.35,1.08,1.08,0,0,1-.08-.53Zm-1,.91,0-2.47h.48l0,2.48ZM18,1.56l-.4-.9-.27.94Zm1,.91-.55,0L18.19,2,17.2,2,17,2.6l-.53,0L17.3.11l.53,0ZM14.82,2a.47.47,0,0,0-.18-.28.35.35,0,0,0-.47.12v0a.4.4,0,0,0,0,.32Zm.1.47.48-.05a.78.78,0,0,1-.18.46.83.83,0,0,1-.44.26A.79.79,0,0,1,14,3a.93.93,0,0,1-.33-.55,1,1,0,0,1,0-.73.75.75,0,0,1,.5-.4.78.78,0,0,1,.68.09,1.21,1.21,0,0,1,.42.72l-1.15.31a.5.5,0,0,0,.2.29.39.39,0,0,0,.3,0,.23.23,0,0,0,.16-.11A.27.27,0,0,0,14.92,2.45ZM12.11,3a.67.67,0,0,0,.25.35.35.35,0,0,0,.3,0,.37.37,0,0,0,.23-.23.56.56,0,0,0,0-.42.61.61,0,0,0-.25-.34.36.36,0,0,0-.32,0,.39.39,0,0,0-.22.23.68.68,0,0,0,0,.42Zm0,1.13L12.62,4a.24.24,0,0,0,.1.1.41.41,0,0,0,.22,0,.49.49,0,0,0,.24-.16.24.24,0,0,0,.05-.14.83.83,0,0,0-.06-.21l-.09-.25a.66.66,0,0,1-.4.47A.71.71,0,0,1,12,3.7a1.08,1.08,0,0,1-.37-.5,1,1,0,0,1,0-.72A.67.67,0,0,1,12,2.06a.64.64,0,0,1,.61.08l-.09-.24L13,1.74l.57,1.5a1.31,1.31,0,0,1,.12.46.58.58,0,0,1-.05.29.63.63,0,0,1-.18.22,1.55,1.55,0,0,1-.36.19,1,1,0,0,1-.65.09.5.5,0,0,1-.32-.3Zm-2-.12a.76.76,0,0,0,.27.32.36.36,0,0,0,.55-.25.69.69,0,0,0-.1-.42.73.73,0,0,0-.32-.33A.36.36,0,0,0,10,3.6a.6.6,0,0,0,.09.41Zm1.56.2-.39.22-.13-.23a.76.76,0,0,1-.11.32.68.68,0,0,1-.81.25,1,1,0,0,1-.53-.5,1,1,0,0,1-.15-.71.68.68,0,0,1,.36-.47.64.64,0,0,1,.57,0l-.43-.78.42-.23Zm-2.76.41a.45.45,0,0,0-.27-.2.31.31,0,0,0-.26.06.32.32,0,0,0-.14.24A.44.44,0,0,0,8.34,5ZM9.17,5l.44-.21a.82.82,0,0,1,0,.49.84.84,0,0,1-.33.39.79.79,0,0,1-.74.15,1.09,1.09,0,0,1-.5-.4,1,1,0,0,1-.21-.71.75.75,0,0,1,.34-.54.8.8,0,0,1,.67-.15,1.17,1.17,0,0,1,.64.54l-1,.68a.51.51,0,0,0,.28.2.37.37,0,0,0,.29-.06.28.28,0,0,0,.12-.16.34.34,0,0,0,0-.22ZM7.92,6.73,6.33,4.83l.36-.3,1.59,1.9ZM6.24,8.37,4.56,7.54l.32-.34L6,7.78l-.63-1,.31-.33L6.7,7,6.09,6l.33-.34L7.3,7.27,7,7.6,5.94,7l.62,1Zm-2,1.12a.57.57,0,0,0,.4.13A.4.4,0,0,0,5,9.45.39.39,0,0,0,5,9.12a.61.61,0,0,0-.26-.35.57.57,0,0,0-.4-.13.4.4,0,0,0-.3.17A.39.39,0,0,0,4,9.14.61.61,0,0,0,4.27,9.49ZM4,9.86a1,1,0,0,1-.3-.36A.82.82,0,0,1,3.58,9a.94.94,0,0,1,.19-.46.86.86,0,0,1,.6-.38.92.92,0,0,1,.7.18A1,1,0,0,1,5.46,9a.87.87,0,0,1-.18.69,1,1,0,0,1-.36.31.77.77,0,0,1-.47.09A1,1,0,0,1,4,9.86Zm.53.86-.24.41-.79-.45a1.54,1.54,0,0,0-.34-.17.33.33,0,0,0-.17,0,.34.34,0,0,0-.12.12.37.37,0,0,0-.05.23.31.31,0,0,0,.09.2,1.16,1.16,0,0,0,.34.24l.7.41-.24.41-1.55-.9.22-.38.23.13a.74.74,0,0,1,.22-.89A.55.55,0,0,1,3,10a.53.53,0,0,1,.22,0,1.55,1.55,0,0,1,.29.14ZM2.74,14.43.45,13.5.63,13l1,.41L1,12.1l.25-.62.55,1.22,1.77-.34-.25.6L2,13.16l.24.53.69.28Z"/><path class="cls-3" d="M19.78,22.34c-2.52-.65-5.23-4-2.52-7s1.37-4.59,1.42-5.81c0,0,4.48,2.69,4,7.3-.48,4.43-4,4.5-2.88,5.48"/><path class="cls-3" d="M34,18.89a14.62,14.62,0,0,1-29.24,0,7.31,7.31,0,0,0,14.62-.19A7.31,7.31,0,0,0,34,18.89m-14.62-.28v0Z"/><path class="cls-1" d="M46.62,31.52h-1v-6h1Zm5.3,0H51V28.78a.88.88,0,0,0-.23-.69.91.91,0,0,0-.65-.21,1.28,1.28,0,0,0-.64.17,1.49,1.49,0,0,0-.49.41v3.06H48V27.14h1v.59a2,2,0,0,1,.65-.49,2,2,0,0,1,.9-.21,1.45,1.45,0,0,1,1.05.37,1.37,1.37,0,0,1,.36,1Zm2.86.12a2.58,2.58,0,0,1-1.88-.7l.44-.68a1.8,1.8,0,0,0,.65.43,2,2,0,0,0,.82.18,1.05,1.05,0,0,0,.65-.16.48.48,0,0,0,.23-.42.43.43,0,0,0-.27-.37,2.74,2.74,0,0,0-.67-.21c-.26-.05-.52-.12-.78-.19a1.46,1.46,0,0,1-.66-.4,1,1,0,0,1-.27-.76,1.15,1.15,0,0,1,.46-.94A1.91,1.91,0,0,1,54.76,27a2.52,2.52,0,0,1,1.7.61l-.4.67a1.67,1.67,0,0,0-1.3-.53,1,1,0,0,0-.59.16.47.47,0,0,0-.22.39c0,.14.09.24.27.32a3,3,0,0,0,.66.2,7.38,7.38,0,0,1,.78.19,1.41,1.41,0,0,1,.66.43,1.14,1.14,0,0,1,.28.79,1.22,1.22,0,0,1-.48,1A2.13,2.13,0,0,1,54.78,31.64Zm4.22,0a1,1,0,0,1-1.13-.85,1.41,1.41,0,0,1,0-.29V28h-.72v-.83h.72V26h1v1.19h.88V28h-.88v2.29a.57.57,0,0,0,.11.38.37.37,0,0,0,.31.15.51.51,0,0,0,.41-.17l.22.73a1.36,1.36,0,0,1-.89.29Zm2.58-5.2a.59.59,0,0,1-.42.17.58.58,0,0,1-.41-.17.6.6,0,0,1,0-.84.58.58,0,0,1,.41-.17.59.59,0,0,1,.42.17.6.6,0,0,1,0,.84Zm.05,5.08h-1V27.14h1Zm2.67.12a1,1,0,0,1-1.12-.85.71.71,0,0,1,0-.29V28h-.73v-.83h.73V26h.95v1.19H65V28h-.89v2.29a.57.57,0,0,0,.11.38.37.37,0,0,0,.31.15.52.52,0,0,0,.42-.17l.22.73A1.31,1.31,0,0,1,64.3,31.64Zm5.6-.12H69v-.58a2,2,0,0,1-1.54.7,1.51,1.51,0,0,1-1.06-.36,1.43,1.43,0,0,1-.36-1V27.14h1v2.75a.91.91,0,0,0,.23.69,1,1,0,0,0,.66.21,1.3,1.3,0,0,0,.64-.17,1.68,1.68,0,0,0,.48-.4V27.14h1Zm2.67.12a1,1,0,0,1-1.12-.85,1.41,1.41,0,0,1,0-.29V28h-.72v-.83h.72V26h1v1.19h.89V28H72.4v2.29a.64.64,0,0,0,.12.38.36.36,0,0,0,.3.15.52.52,0,0,0,.42-.17l.23.73A1.32,1.32,0,0,1,72.57,31.64Zm3.72,0A2.19,2.19,0,0,1,74,29.33a2.22,2.22,0,0,1,.63-1.62A2.09,2.09,0,0,1,76.22,27a2,2,0,0,1,1.55.67,2.41,2.41,0,0,1,.59,1.7v.24H75a1.31,1.31,0,0,0,1.38,1.2,1.66,1.66,0,0,0,1.25-.49l.43.63A2.49,2.49,0,0,1,76.29,31.64ZM77.45,29a1.34,1.34,0,0,0-.34-.81,1.19,1.19,0,0,0-.91-.35,1.16,1.16,0,0,0-.88.35A1.34,1.34,0,0,0,75,29Zm8,2a2.31,2.31,0,0,1-3.25,0,2.47,2.47,0,0,1,0-3.27,2.34,2.34,0,0,1,3.26,0,2.25,2.25,0,0,1,.62,1.63A2.36,2.36,0,0,1,85.5,31Zm-1.63-.18a1.14,1.14,0,0,0,.93-.42,1.64,1.64,0,0,0,.34-1,1.6,1.6,0,0,0-.34-1,1.23,1.23,0,0,0-1.85,0,1.6,1.6,0,0,0-.34,1,1.64,1.64,0,0,0,.34,1,1.12,1.12,0,0,0,.93.42Zm4.54.73h-1V28h-.72v-.83h.72V26.9a1.6,1.6,0,0,1,.38-1.11,1.31,1.31,0,0,1,1-.41,1.37,1.37,0,0,1,1.05.39l-.37.58a.74.74,0,0,0-.5-.19c-.4,0-.6.25-.6.74v.24h.88V28H88.4Zm8.36,0H92.61v-6h4.15v.93H93.67V28h3v.93h-3v1.69h3.09Zm5.1,0h-1V28.78a.88.88,0,0,0-.22-.69.94.94,0,0,0-.66-.21,1.33,1.33,0,0,0-.64.17,1.57,1.57,0,0,0-.48.41v3.06h-1V27.14h1v.59a2,2,0,0,1,.65-.49,2,2,0,0,1,.9-.21,1.46,1.46,0,0,1,1,.37,1.37,1.37,0,0,1,.36,1ZM105,33.3a2.68,2.68,0,0,1-1.84-.65l.44-.69a1.79,1.79,0,0,0,1.4.56,1.46,1.46,0,0,0,.92-.29,1.07,1.07,0,0,0,.37-.93v-.5a1.67,1.67,0,0,1-1.41.73,1.76,1.76,0,0,1-1.39-.6,2.35,2.35,0,0,1-.54-1.65,2.42,2.42,0,0,1,.53-1.65,1.86,1.86,0,0,1,1.4-.6,1.68,1.68,0,0,1,1.41.72v-.61h1V31.3a2.33,2.33,0,0,1-.19,1,1.5,1.5,0,0,1-.54.63,2.34,2.34,0,0,1-.71.3A3.08,3.08,0,0,1,105,33.3Zm.17-2.62a1.33,1.33,0,0,0,.64-.17,1.36,1.36,0,0,0,.48-.41V28.46a1.36,1.36,0,0,0-.48-.41,1.33,1.33,0,0,0-.64-.17,1.18,1.18,0,0,0-.91.39,1.55,1.55,0,0,0-.34,1,1.57,1.57,0,0,0,.34,1A1.17,1.17,0,0,0,105.16,30.68Zm4.33-4.24a.61.61,0,0,1-.42.17.59.59,0,1,1,0-1.18.61.61,0,0,1,.42.17.6.6,0,0,1,0,.84Zm.05,5.08h-1V27.14h1Zm5.27,0h-1V28.78a.92.92,0,0,0-.23-.69.94.94,0,0,0-.66-.21,1.27,1.27,0,0,0-.63.17,1.49,1.49,0,0,0-.49.41v3.06h-.95V27.14h.95v.59a2,2,0,0,1,.65-.49,2,2,0,0,1,.9-.21,1.45,1.45,0,0,1,1,.37,1.37,1.37,0,0,1,.36,1Zm3.38.12a2.26,2.26,0,0,1-1.65-.64,2.45,2.45,0,0,1,0-3.29,2.05,2.05,0,0,1,1.58-.67,2,2,0,0,1,1.56.67,2.41,2.41,0,0,1,.59,1.7v.24h-3.37a1.31,1.31,0,0,0,1.39,1.2,1.66,1.66,0,0,0,1.24-.49L120,31A2.51,2.51,0,0,1,118.19,31.64ZM119.35,29a1.32,1.32,0,0,0-.34-.8,1.15,1.15,0,0,0-.91-.35,1.13,1.13,0,0,0-.88.35,1.32,1.32,0,0,0-.34.8Zm4,2.67a2.21,2.21,0,0,1-2.3-2.31,2.31,2.31,0,0,1,.63-1.62,2.09,2.09,0,0,1,1.59-.67,2,2,0,0,1,1.56.67,2.5,2.5,0,0,1,.59,1.7v.24h-3.37a1.32,1.32,0,0,0,1.39,1.2,1.66,1.66,0,0,0,1.24-.49l.44.63A2.51,2.51,0,0,1,123.36,31.64ZM124.52,29a1.32,1.32,0,0,0-.34-.8,1.15,1.15,0,0,0-.91-.35,1.13,1.13,0,0,0-.88.35,1.32,1.32,0,0,0-.34.8Zm2.93,2.55h-1V27.14h1v.64a2.09,2.09,0,0,1,.64-.54,1.71,1.71,0,0,1,.78-.21V28a1.43,1.43,0,0,0-.29,0,1.34,1.34,0,0,0-.65.17,1.21,1.21,0,0,0-.48.42Zm3.21-5.08a.6.6,0,1,1,.17-.42A.59.59,0,0,1,130.66,26.44Zm.05,5.08h-1V27.14h1Zm5.27,0h-1V28.78a.85.85,0,0,0-.23-.69.91.91,0,0,0-.65-.21,1.3,1.3,0,0,0-.64.17,1.6,1.6,0,0,0-.49.41v3.06h-.95V27.14H133v.59a2.11,2.11,0,0,1,.66-.49,2,2,0,0,1,.89-.21A1.28,1.28,0,0,1,136,28.44Zm3.14,1.78a2.66,2.66,0,0,1-1.85-.65l.45-.69a1.75,1.75,0,0,0,1.39.56,1.47,1.47,0,0,0,.93-.29,1.12,1.12,0,0,0,.37-.93v-.5a1.67,1.67,0,0,1-1.4.73,1.76,1.76,0,0,1-1.4-.6,2.36,2.36,0,0,1-.55-1.65,2.43,2.43,0,0,1,.54-1.65A1.78,1.78,0,0,1,139,27a1.68,1.68,0,0,1,1.41.72v-.61h1V31.3a2.19,2.19,0,0,1-.2,1,1.48,1.48,0,0,1-.53.63,2.34,2.34,0,0,1-.71.3,3.15,3.15,0,0,1-.81.1Zm.17-2.62a1.28,1.28,0,0,0,.64-.17,1.49,1.49,0,0,0,.49-.41V28.46a1.49,1.49,0,0,0-.49-.41,1.28,1.28,0,0,0-.64-.17,1.18,1.18,0,0,0-.91.39,1.55,1.55,0,0,0-.34,1,1.57,1.57,0,0,0,.34,1,1.17,1.17,0,0,0,.91.37Zm9.52.84h-.95V31a1.78,1.78,0,0,1-1.43.6,1.62,1.62,0,0,1-1.05-.39,1.32,1.32,0,0,1-.46-1.06,1.28,1.28,0,0,1,.45-1.07,1.65,1.65,0,0,1,1.06-.37,1.83,1.83,0,0,1,1.43.57v-.65a.73.73,0,0,0-.29-.6,1.2,1.2,0,0,0-.74-.22,1.79,1.79,0,0,0-1.3.56l-.39-.66A2.55,2.55,0,0,1,147,27a2.18,2.18,0,0,1,1.31.38,1.39,1.39,0,0,1,.52,1.2Zm-2-.54a1.22,1.22,0,0,0,1-.45v-.68a1.22,1.22,0,0,0-1-.45,1,1,0,0,0-.68.22.73.73,0,0,0,0,1.13A1,1,0,0,0,146.81,31Zm7.26.54h-.95V28.78a.88.88,0,0,0-.22-.69.94.94,0,0,0-.66-.21,1.33,1.33,0,0,0-.64.17,1.6,1.6,0,0,0-.49.41v3.06h-1V27.14h1v.59a2.11,2.11,0,0,1,.66-.49,2,2,0,0,1,.89-.21,1.47,1.47,0,0,1,1.06.37,1.41,1.41,0,0,1,.36,1Zm5.39,0h-1v-.6a1.72,1.72,0,0,1-1.41.72,1.81,1.81,0,0,1-1.39-.62,2.84,2.84,0,0,1,0-3.36A1.76,1.76,0,0,1,157.1,27a1.66,1.66,0,0,1,1.41.72V25.48h1Zm-2.08-.73a1.34,1.34,0,0,0,.65-.17,1.38,1.38,0,0,0,.48-.42V28.46a1.51,1.51,0,0,0-1.13-.59,1.13,1.13,0,0,0-.9.41,1.52,1.52,0,0,0-.34,1,1.57,1.57,0,0,0,.34,1.06A1.11,1.11,0,0,0,157.38,30.79Zm7,.73H163.3v-6h1.06Zm5.29,0h-1V28.78a.88.88,0,0,0-.23-.69.91.91,0,0,0-.65-.21,1.28,1.28,0,0,0-.64.17,1.49,1.49,0,0,0-.49.41v3.06h-.95V27.14h.95v.59a2,2,0,0,1,.66-.49,2,2,0,0,1,.89-.21,1.28,1.28,0,0,1,1.42,1.41Zm2.54,0h-.95V28h-.73v-.83h.73V26.9a1.55,1.55,0,0,1,.37-1.11,1.32,1.32,0,0,1,1-.41,1.38,1.38,0,0,1,1,.39l-.37.58a.78.78,0,0,0-.5-.19c-.41,0-.61.25-.61.74v.24h.89V28h-.89Zm5.35-.55a2.33,2.33,0,0,1-3.26,0,2.47,2.47,0,0,1,0-3.27,2.34,2.34,0,0,1,3.26,0,2.35,2.35,0,0,1,.62,1.64A2.38,2.38,0,0,1,177.54,31Zm-1.63-.18a1.12,1.12,0,0,0,.92-.42,1.64,1.64,0,0,0,.34-1,1.6,1.6,0,0,0-.34-1,1.22,1.22,0,0,0-1.84,0,1.75,1.75,0,0,0,0,2.07A1.12,1.12,0,0,0,175.91,30.79Zm4.29.73h-1V27.14h1v.64a2.18,2.18,0,0,1,.63-.54,1.79,1.79,0,0,1,.79-.21V28a1.43,1.43,0,0,0-.29,0,1.47,1.47,0,0,0-.65.18,1.13,1.13,0,0,0-.48.41Zm8.64,0h-1V28.67c0-.53-.24-.8-.72-.8a1.07,1.07,0,0,0-.58.18,1.41,1.41,0,0,0-.44.4v3.07h-.95V28.67c0-.53-.24-.8-.71-.8a1,1,0,0,0-.58.18,1.53,1.53,0,0,0-.44.4v3.07h-1V27.14h1v.59a2,2,0,0,1,.58-.47,1.69,1.69,0,0,1,.85-.23,1.34,1.34,0,0,1,.78.22,1,1,0,0,1,.42.58,1.73,1.73,0,0,1,.61-.56,1.82,1.82,0,0,1,.88-.24,1.28,1.28,0,0,1,.93.34,1.39,1.39,0,0,1,.33,1Zm5,0h-.95V31a1.78,1.78,0,0,1-1.42.59,1.55,1.55,0,0,1-1-.39,1.33,1.33,0,0,1-.47-1.06,1.3,1.3,0,0,1,.46-1.07,1.62,1.62,0,0,1,1.06-.36,1.77,1.77,0,0,1,1.42.56v-.65a.72.72,0,0,0-.28-.59,1.18,1.18,0,0,0-.74-.23,1.76,1.76,0,0,0-1.3.57l-.4-.66A2.52,2.52,0,0,1,192,27a2.15,2.15,0,0,1,1.32.38,1.39,1.39,0,0,1,.51,1.2Zm-2-.54a1.22,1.22,0,0,0,1-.45v-.68a1.22,1.22,0,0,0-1-.45,1,1,0,0,0-.68.22.73.73,0,0,0,0,1.13,1,1,0,0,0,.68.23Zm4.67.65a1,1,0,0,1-1.13-.85,1.31,1.31,0,0,1,0-.28V28h-.72v-.83h.72V26h1v1.19h.88V28h-.88v2.29a.57.57,0,0,0,.11.38.37.37,0,0,0,.31.15.5.5,0,0,0,.41-.17l.23.73a1.31,1.31,0,0,1-.89.29Zm2.58-5.19a.59.59,0,0,1-.42.17.58.58,0,0,1-.41-.17.6.6,0,0,1,0-.84.58.58,0,0,1,.41-.17.59.59,0,0,1,.42.17.6.6,0,0,1,0,.84Zm.06,5.08h-1V27.14h1Zm5-.55a2.08,2.08,0,0,1-1.63.66,2.1,2.1,0,0,1-1.63-.67,2.47,2.47,0,0,1,0-3.27,2.34,2.34,0,0,1,3.26,0,2.26,2.26,0,0,1,.62,1.64A2.29,2.29,0,0,1,204.1,31Zm-1.63-.18a1.15,1.15,0,0,0,.93-.42,1.64,1.64,0,0,0,.34-1,1.6,1.6,0,0,0-.34-1,1.12,1.12,0,0,0-.93-.42,1.1,1.1,0,0,0-.92.42,1.6,1.6,0,0,0-.34,1,1.64,1.64,0,0,0,.34,1A1.13,1.13,0,0,0,202.47,30.79Zm7.26.73h-1V28.78a.88.88,0,0,0-.22-.69.94.94,0,0,0-.66-.21,1.33,1.33,0,0,0-.64.17,1.57,1.57,0,0,0-.48.41v3.06h-1V27.14h1v.59a2,2,0,0,1,.65-.49,2,2,0,0,1,.9-.21,1.46,1.46,0,0,1,1.05.37,1.37,1.37,0,0,1,.36,1Zm6.33,0H215V26.41h-1.83v-.93h4.72v.93h-1.83Zm3.9.12a2.26,2.26,0,0,1-1.65-.64,2.45,2.45,0,0,1,0-3.29,2.07,2.07,0,0,1,1.58-.67,2,2,0,0,1,1.56.67,2.41,2.41,0,0,1,.59,1.7v.24h-3.37a1.32,1.32,0,0,0,1.39,1.2,1.66,1.66,0,0,0,1.24-.49l.44.63A2.51,2.51,0,0,1,220,31.64ZM221.12,29a1.21,1.21,0,0,0-.34-.8,1.13,1.13,0,0,0-.9-.35,1.11,1.11,0,0,0-.88.35,1.21,1.21,0,0,0-.34.8Zm4,2.67a2.16,2.16,0,0,1-1.62-.66,2.46,2.46,0,0,1,0-3.29,2.16,2.16,0,0,1,1.62-.65,2,2,0,0,1,1.68.78l-.62.57a1.15,1.15,0,0,0-1-.51,1.22,1.22,0,0,0-1,.4,1.71,1.71,0,0,0,0,2.1,1.25,1.25,0,0,0,1,.41,1.19,1.19,0,0,0,1-.53l.62.59A2,2,0,0,1,225.09,31.64Zm6.56-.12h-1V28.77a.9.9,0,0,0-.23-.69.93.93,0,0,0-.66-.2,1.23,1.23,0,0,0-.64.17,1.46,1.46,0,0,0-.48.41v3.06h-.95v-6h.95v2.25a2.1,2.1,0,0,1,.65-.49,2,2,0,0,1,.89-.21,1.24,1.24,0,0,1,1.41,1,1,1,0,0,1,0,.35Zm5.27,0h-1V28.78a.88.88,0,0,0-.22-.69.94.94,0,0,0-.66-.21,1.27,1.27,0,0,0-.63.17,1.49,1.49,0,0,0-.49.41v3.06h-1V27.14h1v.59a2,2,0,0,1,.65-.49,2,2,0,0,1,.9-.21,1.46,1.46,0,0,1,1.05.37,1.37,1.37,0,0,1,.36,1Zm5-.55a2.08,2.08,0,0,1-1.63.66,2.1,2.1,0,0,1-1.63-.67,2.47,2.47,0,0,1,0-3.27,2.34,2.34,0,0,1,3.26,0,2.26,2.26,0,0,1,.62,1.64,2.29,2.29,0,0,1-.62,1.64Zm-1.63-.18a1.15,1.15,0,0,0,.93-.42,1.64,1.64,0,0,0,.34-1,1.6,1.6,0,0,0-.34-1,1.12,1.12,0,0,0-.93-.42,1.1,1.1,0,0,0-.92.42,1.6,1.6,0,0,0-.34,1,1.64,1.64,0,0,0,.34,1,1.13,1.13,0,0,0,.92.42Zm4.29.73h-.95v-6h.95Zm5-.55a2.32,2.32,0,0,1-3.26,0,2.47,2.47,0,0,1,0-3.27,2.34,2.34,0,0,1,3.26,0,2.34,2.34,0,0,1,.62,1.63A2.36,2.36,0,0,1,249.51,31Zm-1.63-.18a1.12,1.12,0,0,0,.92-.42,1.64,1.64,0,0,0,.34-1,1.6,1.6,0,0,0-.34-1,1.22,1.22,0,0,0-1.84,0,1.6,1.6,0,0,0-.34,1,1.64,1.64,0,0,0,.34,1A1.12,1.12,0,0,0,247.88,30.79ZM253,33.3a2.7,2.7,0,0,1-1.84-.65l.44-.69a1.76,1.76,0,0,0,1.4.56,1.44,1.44,0,0,0,.92-.29,1.1,1.1,0,0,0,.38-.93v-.5a1.69,1.69,0,0,1-1.41.73,1.79,1.79,0,0,1-1.4-.6,2.4,2.4,0,0,1-.54-1.65,2.43,2.43,0,0,1,.54-1.65,1.78,1.78,0,0,1,1.4-.6,1.68,1.68,0,0,1,1.41.72v-.61h.95V31.3a2.19,2.19,0,0,1-.2,1,1.48,1.48,0,0,1-.53.63,2.34,2.34,0,0,1-.71.3A3.21,3.21,0,0,1,253,33.3Zm.17-2.62a1.28,1.28,0,0,0,.64-.17,1.49,1.49,0,0,0,.49-.41V28.46a1.49,1.49,0,0,0-.49-.41,1.28,1.28,0,0,0-.64-.17,1.14,1.14,0,0,0-.9.39,1.45,1.45,0,0,0-.34,1,1.47,1.47,0,0,0,.34,1A1.14,1.14,0,0,0,253.17,30.68Zm3.25,2.56.13-.86a1,1,0,0,0,.37.08.63.63,0,0,0,.63-.38l.22-.5L256,27.14h1l1.27,3.29,1.28-3.29h1l-2.11,5.18a1.46,1.46,0,0,1-.59.75,1.66,1.66,0,0,1-.9.23A2.42,2.42,0,0,1,256.42,33.24Z"/></g></g></svg>